<svg width="69" height="52" viewBox="0 0 69 52" fill="none" xmlns="http://www.w3.org/2000/svg">
<path fill-rule="evenodd" clip-rule="evenodd" d="M59.6226 19.3472C59.7266 18.6048 59.7773 17.8489 59.7773 17.0931C59.7773 7.67069 52.1183 0 42.6981 0C37.2355 0 32.2183 2.58263 29.043 6.81857C27.9195 6.54882 26.7773 6.40993 25.6191 6.40993C17.3788 6.40993 10.6748 13.119 10.6748 21.3664C10.6748 21.5747 10.6802 21.7804 10.6882 21.9833C4.51294 23.8208 0 29.5549 0 36.3231C0 44.5701 6.70359 51.2795 14.9443 51.2795H51.2376C60.6578 51.2795 68.3168 43.6143 68.3168 34.1864C68.3168 27.9554 64.893 22.3252 59.6221 19.3476L59.6226 19.3472ZM51.238 47.0059H14.9447C9.04973 47.0059 4.27022 42.2225 4.27022 36.3227C4.27022 30.4229 9.04973 25.6396 14.9447 25.6396C15.2703 25.6396 15.5799 25.7063 15.8947 25.7357C15.2943 24.4003 14.9447 22.926 14.9447 21.3663C14.9447 15.4665 19.7242 10.6831 25.6192 10.6831C27.546 10.6831 29.3313 11.2333 30.8897 12.128C32.8245 7.51023 37.3825 4.27342 42.6983 4.27342C49.7752 4.27342 55.5077 10.0103 55.5077 17.0932C55.5077 18.7785 55.1608 20.381 54.5683 21.858C60.0204 23.3376 64.0473 28.2679 64.0473 34.1862C64.0473 41.2689 58.3151 47.006 51.2379 47.006L51.238 47.0059Z" fill="#E1E3E4"/>
<path fill-rule="evenodd" clip-rule="evenodd" d="M38.4287 29.9128H42.6985C42.6985 34.6294 38.8663 38.4594 34.1589 38.4594C32.571 38.4594 31.0713 37.984 29.7663 37.1987L27.1724 40.6574C29.2112 41.9821 31.6236 42.7326 34.1591 42.7326C41.2231 42.7326 46.9685 36.9824 46.9685 29.9128H51.2383L44.8336 21.3663L38.4287 29.9128Z" fill="#E1E3E4"/>
<path fill-rule="evenodd" clip-rule="evenodd" d="M25.6194 29.9128C25.6194 25.1962 29.4489 21.3663 34.159 21.3663C35.7468 21.3663 37.2466 21.8417 38.5489 22.6269L41.1428 19.1683C39.1093 17.8435 36.6942 17.093 34.1588 17.093C27.0948 17.093 21.3494 22.8433 21.3494 29.9128H17.0796L23.4843 38.4594L29.889 29.9128H25.6194Z" fill="#E1E3E4"/>
</svg>
